<?xml version="1.0" encoding="UTF-8" standalone="no"?>
<!DOCTYPE svg PUBLIC "-//W3C//DTD SVG 1.1//EN"
 "http://www.w3.org/Graphics/SVG/1.1/DTD/svg11.dtd">
<!-- Generated by graphviz version 2.47.0 (20210316.0004)
 -->
<!-- Title: dbml Pages: 1 -->
<svg width="2680pt" height="2367pt"
 viewBox="0.00 0.00 2679.97 2367.49" xmlns="http://www.w3.org/2000/svg" xmlns:xlink="http://www.w3.org/1999/xlink">
<g id="graph0" class="graph" transform="scale(1 1) rotate(0) translate(4 2363.49)">
<title>dbml</title>
<!-- Appointment -->
<g id="Appointment" class="node">
<title>Appointment</title>
<ellipse fill="none" stroke="black" stroke-width="0" cx="967.26" cy="-1025.53" rx="260.43" ry="214.92"/>
<polygon fill="#1d71b8" stroke="transparent" points="785.26,-1115.53 785.26,-1175.53 1149.26,-1175.53 1149.26,-1115.53 785.26,-1115.53"/>
<polygon fill="none" stroke="#29235c" points="785.26,-1115.53 785.26,-1175.53 1149.26,-1175.53 1149.26,-1115.53 785.26,-1115.53"/>
<text text-anchor="start" x="815.2" y="-1136.73" font-family="Helvetica,sans-Serif" font-weight="bold" font-size="32.00" fill="#ffffff"> &#160;&#160;&#160;&#160;&#160;&#160;Appointment &#160;&#160;&#160;&#160;&#160;&#160;</text>
<polygon fill="#e7e2dd" stroke="transparent" points="785.26,-1055.53 785.26,-1115.53 1149.26,-1115.53 1149.26,-1055.53 785.26,-1055.53"/>
<polygon fill="none" stroke="#29235c" points="785.26,-1055.53 785.26,-1115.53 1149.26,-1115.53 1149.26,-1055.53 785.26,-1055.53"/>
<text text-anchor="start" x="796.26" y="-1076.73" font-family="Helvetica,sans-Serif" font-weight="bold" font-size="32.00" fill="#29235c">id</text>
<text text-anchor="start" x="821.15" y="-1076.73" font-family="Helvetica,sans-Serif" font-size="32.00" fill="#29235c"> &#160;&#160;&#160;</text>
<text text-anchor="start" x="996.04" y="-1076.73" font-family="Helvetica,sans-Serif" font-style="italic" font-size="32.00" fill="#29235c">INTEGER</text>
<polygon fill="#e7e2dd" stroke="transparent" points="785.26,-995.53 785.26,-1055.53 1149.26,-1055.53 1149.26,-995.53 785.26,-995.53"/>
<polygon fill="none" stroke="#29235c" points="785.26,-995.53 785.26,-1055.53 1149.26,-1055.53 1149.26,-995.53 785.26,-995.53"/>
<text text-anchor="start" x="796.26" y="-1015.73" font-family="Helvetica,sans-Serif" font-size="32.00" fill="#29235c">date_time &#160;&#160;&#160;</text>
<text text-anchor="start" x="976.49" y="-1016.73" font-family="Helvetica,sans-Serif" font-style="italic" font-size="32.00" fill="#29235c">DATETIME</text>
<polygon fill="#e7e2dd" stroke="transparent" points="785.26,-935.53 785.26,-995.53 1149.26,-995.53 1149.26,-935.53 785.26,-935.53"/>
<polygon fill="none" stroke="#29235c" points="785.26,-935.53 785.26,-995.53 1149.26,-995.53 1149.26,-935.53 785.26,-935.53"/>
<text text-anchor="start" x="795.79" y="-955.73" font-family="Helvetica,sans-Serif" font-size="32.00" fill="#29235c">dinosaur_id &#160;&#160;&#160;</text>
<text text-anchor="start" x="996.15" y="-956.73" font-family="Helvetica,sans-Serif" font-style="italic" font-size="32.00" fill="#29235c">INTEGER</text>
<polygon fill="#e7e2dd" stroke="transparent" points="785.26,-875.53 785.26,-935.53 1149.26,-935.53 1149.26,-875.53 785.26,-875.53"/>
<polygon fill="none" stroke="#29235c" points="785.26,-875.53 785.26,-935.53 1149.26,-935.53 1149.26,-875.53 785.26,-875.53"/>
<text text-anchor="start" x="796.26" y="-895.73" font-family="Helvetica,sans-Serif" font-size="32.00" fill="#29235c">sitter_id &#160;&#160;&#160;</text>
<text text-anchor="start" x="996.04" y="-896.73" font-family="Helvetica,sans-Serif" font-style="italic" font-size="32.00" fill="#29235c">INTEGER</text>
<polygon fill="none" stroke="#29235c" stroke-width="2" points="784.26,-874.53 784.26,-1176.53 1150.26,-1176.53 1150.26,-874.53 784.26,-874.53"/>
</g>
<!-- Dinosaur -->
<g id="Dinosaur" class="node">
<title>Dinosaur</title>
<ellipse fill="none" stroke="black" stroke-width="0" cx="1679.25" cy="-1249.53" rx="345.55" ry="299.63"/>
<polygon fill="#1d71b8" stroke="transparent" points="1437.25,-1399.53 1437.25,-1459.53 1922.25,-1459.53 1922.25,-1399.53 1437.25,-1399.53"/>
<polygon fill="none" stroke="#29235c" points="1437.25,-1399.53 1437.25,-1459.53 1922.25,-1459.53 1922.25,-1399.53 1437.25,-1399.53"/>
<text text-anchor="start" x="1553.5" y="-1420.73" font-family="Helvetica,sans-Serif" font-weight="bold" font-size="32.00" fill="#ffffff"> &#160;&#160;&#160;&#160;&#160;&#160;Dinosaur &#160;&#160;&#160;&#160;&#160;&#160;</text>
<polygon fill="#e7e2dd" stroke="transparent" points="1437.25,-1339.53 1437.25,-1399.53 1922.25,-1399.53 1922.25,-1339.53 1437.25,-1339.53"/>
<polygon fill="none" stroke="#29235c" points="1437.25,-1339.53 1437.25,-1399.53 1922.25,-1399.53 1922.25,-1339.53 1437.25,-1339.53"/>
<text text-anchor="start" x="1448.25" y="-1360.73" font-family="Helvetica,sans-Serif" font-weight="bold" font-size="32.00" fill="#29235c">id</text>
<text text-anchor="start" x="1473.14" y="-1360.73" font-family="Helvetica,sans-Serif" font-size="32.00" fill="#29235c"> &#160;&#160;&#160;</text>
<text text-anchor="start" x="1769.04" y="-1360.73" font-family="Helvetica,sans-Serif" font-style="italic" font-size="32.00" fill="#29235c">INTEGER</text>
<polygon fill="#e7e2dd" stroke="transparent" points="1437.25,-1279.53 1437.25,-1339.53 1922.25,-1339.53 1922.25,-1279.53 1437.25,-1279.53"/>
<polygon fill="none" stroke="#29235c" points="1437.25,-1279.53 1437.25,-1339.53 1922.25,-1339.53 1922.25,-1279.53 1437.25,-1279.53"/>
<text text-anchor="start" x="1448.25" y="-1299.73" font-family="Helvetica,sans-Serif" font-size="32.00" fill="#29235c">name &#160;&#160;&#160;</text>
<text text-anchor="start" x="1754.83" y="-1300.73" font-family="Helvetica,sans-Serif" font-style="italic" font-size="32.00" fill="#29235c">VARCHAR</text>
<polygon fill="#e7e2dd" stroke="transparent" points="1437.25,-1219.53 1437.25,-1279.53 1922.25,-1279.53 1922.25,-1219.53 1437.25,-1219.53"/>
<polygon fill="none" stroke="#29235c" points="1437.25,-1219.53 1437.25,-1279.53 1922.25,-1279.53 1922.25,-1219.53 1437.25,-1219.53"/>
<text text-anchor="start" x="1448.25" y="-1239.73" font-family="Helvetica,sans-Serif" font-size="32.00" fill="#29235c">age &#160;&#160;&#160;</text>
<text text-anchor="start" x="1769.04" y="-1240.73" font-family="Helvetica,sans-Serif" font-style="italic" font-size="32.00" fill="#29235c">INTEGER</text>
<polygon fill="#e7e2dd" stroke="transparent" points="1437.25,-1159.53 1437.25,-1219.53 1922.25,-1219.53 1922.25,-1159.53 1437.25,-1159.53"/>
<polygon fill="none" stroke="#29235c" points="1437.25,-1159.53 1437.25,-1219.53 1922.25,-1219.53 1922.25,-1159.53 1437.25,-1159.53"/>
<text text-anchor="start" x="1448.08" y="-1179.73" font-family="Helvetica,sans-Serif" font-size="32.00" fill="#29235c">last_checkup_date &#160;&#160;&#160;</text>
<text text-anchor="start" x="1749.87" y="-1180.73" font-family="Helvetica,sans-Serif" font-style="italic" font-size="32.00" fill="#29235c">DATETIME</text>
<polygon fill="#e7e2dd" stroke="transparent" points="1437.25,-1099.53 1437.25,-1159.53 1922.25,-1159.53 1922.25,-1099.53 1437.25,-1099.53"/>
<polygon fill="none" stroke="#29235c" points="1437.25,-1099.53 1437.25,-1159.53 1922.25,-1159.53 1922.25,-1099.53 1437.25,-1099.53"/>
<text text-anchor="start" x="1448.25" y="-1119.73" font-family="Helvetica,sans-Serif" font-size="32.00" fill="#29235c">customer_id &#160;&#160;&#160;</text>
<text text-anchor="start" x="1769.04" y="-1120.73" font-family="Helvetica,sans-Serif" font-style="italic" font-size="32.00" fill="#29235c">INTEGER</text>
<polygon fill="#e7e2dd" stroke="transparent" points="1437.25,-1039.53 1437.25,-1099.53 1922.25,-1099.53 1922.25,-1039.53 1437.25,-1039.53"/>
<polygon fill="none" stroke="#29235c" points="1437.25,-1039.53 1437.25,-1099.53 1922.25,-1099.53 1922.25,-1039.53 1437.25,-1039.53"/>
<text text-anchor="start" x="1448.25" y="-1059.73" font-family="Helvetica,sans-Serif" font-size="32.00" fill="#29235c">type_id &#160;&#160;&#160;</text>
<text text-anchor="start" x="1769.04" y="-1060.73" font-family="Helvetica,sans-Serif" font-style="italic" font-size="32.00" fill="#29235c">INTEGER</text>
<polygon fill="none" stroke="#29235c" stroke-width="2" points="1435.75,-1038.53 1435.75,-1460.53 1922.75,-1460.53 1922.75,-1038.53 1435.75,-1038.53"/>
</g>
<!-- Appointment&#45;&gt;Dinosaur -->
<!-- Appointment&#45;&gt;Dinosaur -->
<g id="edge2" class="edge">
<title>Appointment:e&#45;&gt;Dinosaur:w</title>
<path fill="none" stroke="#29235c" stroke-width="3" d="M1150.26,-965.53C1366.81,-965.53 1220.98,-1357.01 1426.21,-1369.24"/>
<polygon fill="#29235c" stroke="#29235c" stroke-width="3" points="1426.16,-1372.74 1436.25,-1369.53 1426.36,-1365.74 1426.16,-1372.74"/>
<text text-anchor="middle" x="1442.48" y="-1379.13" font-family="Helvetica,sans-Serif" font-size="32.00" fill="#29235c">*</text>
<text text-anchor="middle" x="1141.37" y="-975.13" font-family="Helvetica,sans-Serif" font-size="32.00" fill="#29235c">1</text>
</g>
<!-- Sitter -->
<g id="Sitter" class="node">
<title>Sitter</title>
<ellipse fill="none" stroke="black" stroke-width="0" cx="1679.25" cy="-759.53" rx="245.23" ry="172.57"/>
<polygon fill="#1d71b8" stroke="transparent" points="1508.25,-819.53 1508.25,-879.53 1851.25,-879.53 1851.25,-819.53 1508.25,-819.53"/>
<polygon fill="none" stroke="#29235c" points="1508.25,-819.53 1508.25,-879.53 1851.25,-879.53 1851.25,-819.53 1508.25,-819.53"/>
<text text-anchor="start" x="1580.17" y="-840.73" font-family="Helvetica,sans-Serif" font-weight="bold" font-size="32.00" fill="#ffffff"> &#160;&#160;&#160;&#160;&#160;&#160;Sitter &#160;&#160;&#160;&#160;&#160;&#160;</text>
<polygon fill="#e7e2dd" stroke="transparent" points="1508.25,-759.53 1508.25,-819.53 1851.25,-819.53 1851.25,-759.53 1508.25,-759.53"/>
<polygon fill="none" stroke="#29235c" points="1508.25,-759.53 1508.25,-819.53 1851.25,-819.53 1851.25,-759.53 1508.25,-759.53"/>
<text text-anchor="start" x="1519.25" y="-780.73" font-family="Helvetica,sans-Serif" font-weight="bold" font-size="32.00" fill="#29235c">id</text>
<text text-anchor="start" x="1544.14" y="-780.73" font-family="Helvetica,sans-Serif" font-size="32.00" fill="#29235c"> &#160;&#160;&#160;</text>
<text text-anchor="start" x="1698.04" y="-780.73" font-family="Helvetica,sans-Serif" font-style="italic" font-size="32.00" fill="#29235c">INTEGER</text>
<polygon fill="#e7e2dd" stroke="transparent" points="1508.25,-699.53 1508.25,-759.53 1851.25,-759.53 1851.25,-699.53 1508.25,-699.53"/>
<polygon fill="none" stroke="#29235c" points="1508.25,-699.53 1508.25,-759.53 1851.25,-759.53 1851.25,-699.53 1508.25,-699.53"/>
<text text-anchor="start" x="1519.25" y="-719.73" font-family="Helvetica,sans-Serif" font-size="32.00" fill="#29235c">name &#160;&#160;&#160;</text>
<text text-anchor="start" x="1683.83" y="-720.73" font-family="Helvetica,sans-Serif" font-style="italic" font-size="32.00" fill="#29235c">VARCHAR</text>
<polygon fill="#e7e2dd" stroke="transparent" points="1508.25,-639.53 1508.25,-699.53 1851.25,-699.53 1851.25,-639.53 1508.25,-639.53"/>
<polygon fill="none" stroke="#29235c" points="1508.25,-639.53 1508.25,-699.53 1851.25,-699.53 1851.25,-639.53 1508.25,-639.53"/>
<text text-anchor="start" x="1519.07" y="-659.73" font-family="Helvetica,sans-Serif" font-size="32.00" fill="#29235c">expertise &#160;&#160;&#160;</text>
<text text-anchor="start" x="1684.04" y="-660.73" font-family="Helvetica,sans-Serif" font-style="italic" font-size="32.00" fill="#29235c">VARCHAR</text>
<polygon fill="none" stroke="#29235c" stroke-width="2" points="1506.75,-638.53 1506.75,-880.53 1851.75,-880.53 1851.75,-638.53 1506.75,-638.53"/>
</g>
<!-- Appointment&#45;&gt;Sitter -->
<!-- Appointment&#45;&gt;Sitter -->
<g id="edge4" class="edge">
<title>Appointment:e&#45;&gt;Sitter:w</title>
<path fill="none" stroke="#29235c" stroke-width="3" d="M1150.26,-905.53C1313.67,-905.53 1339.41,-794.24 1497.17,-789.68"/>
<polygon fill="#29235c" stroke="#29235c" stroke-width="3" points="1497.3,-793.18 1507.25,-789.53 1497.2,-786.18 1497.3,-793.18"/>
<text text-anchor="middle" x="1513.48" y="-799.13" font-family="Helvetica,sans-Serif" font-size="32.00" fill="#29235c">*</text>
<text text-anchor="middle" x="1141.37" y="-915.13" font-family="Helvetica,sans-Serif" font-size="32.00" fill="#29235c">1</text>
</g>
<!-- Customer -->
<g id="Customer" class="node">
<title>Customer</title>
<ellipse fill="none" stroke="black" stroke-width="0" cx="2366.5" cy="-1920.53" rx="305.44" ry="257.27"/>
<polygon fill="#1d71b8" stroke="transparent" points="2152.5,-2040.53 2152.5,-2100.53 2580.5,-2100.53 2580.5,-2040.53 2152.5,-2040.53"/>
<polygon fill="none" stroke="#29235c" points="2152.5,-2040.53 2152.5,-2100.53 2580.5,-2100.53 2580.5,-2040.53 2152.5,-2040.53"/>
<text text-anchor="start" x="2234.92" y="-2061.73" font-family="Helvetica,sans-Serif" font-weight="bold" font-size="32.00" fill="#ffffff"> &#160;&#160;&#160;&#160;&#160;&#160;Customer &#160;&#160;&#160;&#160;&#160;&#160;</text>
<polygon fill="#e7e2dd" stroke="transparent" points="2152.5,-1980.53 2152.5,-2040.53 2580.5,-2040.53 2580.5,-1980.53 2152.5,-1980.53"/>
<polygon fill="none" stroke="#29235c" points="2152.5,-1980.53 2152.5,-2040.53 2580.5,-2040.53 2580.5,-1980.53 2152.5,-1980.53"/>
<text text-anchor="start" x="2163.5" y="-2001.73" font-family="Helvetica,sans-Serif" font-weight="bold" font-size="32.00" fill="#29235c">id</text>
<text text-anchor="start" x="2188.39" y="-2001.73" font-family="Helvetica,sans-Serif" font-size="32.00" fill="#29235c"> &#160;&#160;&#160;</text>
<text text-anchor="start" x="2427.28" y="-2001.73" font-family="Helvetica,sans-Serif" font-style="italic" font-size="32.00" fill="#29235c">INTEGER</text>
<polygon fill="#e7e2dd" stroke="transparent" points="2152.5,-1920.53 2152.5,-1980.53 2580.5,-1980.53 2580.5,-1920.53 2152.5,-1920.53"/>
<polygon fill="none" stroke="#29235c" points="2152.5,-1920.53 2152.5,-1980.53 2580.5,-1980.53 2580.5,-1920.53 2152.5,-1920.53"/>
<text text-anchor="start" x="2163.5" y="-1940.73" font-family="Helvetica,sans-Serif" font-size="32.00" fill="#29235c">name &#160;&#160;&#160;</text>
<text text-anchor="start" x="2413.07" y="-1941.73" font-family="Helvetica,sans-Serif" font-style="italic" font-size="32.00" fill="#29235c">VARCHAR</text>
<polygon fill="#e7e2dd" stroke="transparent" points="2152.5,-1860.53 2152.5,-1920.53 2580.5,-1920.53 2580.5,-1860.53 2152.5,-1860.53"/>
<polygon fill="none" stroke="#29235c" points="2152.5,-1860.53 2152.5,-1920.53 2580.5,-1920.53 2580.5,-1860.53 2152.5,-1860.53"/>
<text text-anchor="start" x="2163.5" y="-1880.73" font-family="Helvetica,sans-Serif" font-size="32.00" fill="#29235c">email &#160;&#160;&#160;</text>
<text text-anchor="start" x="2413.07" y="-1881.73" font-family="Helvetica,sans-Serif" font-style="italic" font-size="32.00" fill="#29235c">VARCHAR</text>
<polygon fill="#e7e2dd" stroke="transparent" points="2152.5,-1800.53 2152.5,-1860.53 2580.5,-1860.53 2580.5,-1800.53 2152.5,-1800.53"/>
<polygon fill="none" stroke="#29235c" points="2152.5,-1800.53 2152.5,-1860.53 2580.5,-1860.53 2580.5,-1800.53 2152.5,-1800.53"/>
<text text-anchor="start" x="2163.12" y="-1820.73" font-family="Helvetica,sans-Serif" font-size="32.00" fill="#29235c">phone_number &#160;&#160;&#160;</text>
<text text-anchor="start" x="2413.29" y="-1821.73" font-family="Helvetica,sans-Serif" font-style="italic" font-size="32.00" fill="#29235c">VARCHAR</text>
<polygon fill="#e7e2dd" stroke="transparent" points="2152.5,-1740.53 2152.5,-1800.53 2580.5,-1800.53 2580.5,-1740.53 2152.5,-1740.53"/>
<polygon fill="none" stroke="#29235c" points="2152.5,-1740.53 2152.5,-1800.53 2580.5,-1800.53 2580.5,-1740.53 2152.5,-1740.53"/>
<text text-anchor="start" x="2163.5" y="-1760.73" font-family="Helvetica,sans-Serif" font-size="32.00" fill="#29235c">address &#160;&#160;&#160;</text>
<text text-anchor="start" x="2413.07" y="-1761.73" font-family="Helvetica,sans-Serif" font-style="italic" font-size="32.00" fill="#29235c">VARCHAR</text>
<polygon fill="none" stroke="#29235c" stroke-width="2" points="2151.5,-1739.53 2151.5,-2101.53 2581.5,-2101.53 2581.5,-1739.53 2151.5,-1739.53"/>
</g>
<!-- Dinosaur&#45;&gt;Customer -->
<!-- Dinosaur&#45;&gt;Customer -->
<g id="edge6" class="edge">
<title>Dinosaur:e&#45;&gt;Customer:w</title>
<path fill="none" stroke="#29235c" stroke-width="3" d="M1923.25,-1129.53C2122.04,-1129.53 1955.17,-1980.68 2141.46,-2009.77"/>
<polygon fill="#29235c" stroke="#29235c" stroke-width="3" points="2141.26,-2013.27 2151.5,-2010.53 2141.79,-2006.29 2141.26,-2013.27"/>
<text text-anchor="middle" x="2145.28" y="-2020.13" font-family="Helvetica,sans-Serif" font-size="32.00" fill="#29235c">*</text>
<text text-anchor="middle" x="1914.36" y="-1139.13" font-family="Helvetica,sans-Serif" font-size="32.00" fill="#29235c">1</text>
</g>
<!-- DinosaurType -->
<g id="DinosaurType" class="node">
<title>DinosaurType</title>
<ellipse fill="none" stroke="black" stroke-width="0" cx="2366.5" cy="-1339.53" rx="275.54" ry="172.57"/>
<polygon fill="#1d71b8" stroke="transparent" points="2173.5,-1399.53 2173.5,-1459.53 2559.5,-1459.53 2559.5,-1399.53 2173.5,-1399.53"/>
<polygon fill="none" stroke="#29235c" points="2173.5,-1399.53 2173.5,-1459.53 2559.5,-1459.53 2559.5,-1399.53 2173.5,-1399.53"/>
<text text-anchor="start" x="2204.68" y="-1420.73" font-family="Helvetica,sans-Serif" font-weight="bold" font-size="32.00" fill="#ffffff"> &#160;&#160;&#160;&#160;&#160;&#160;DinosaurType &#160;&#160;&#160;&#160;&#160;&#160;</text>
<polygon fill="#e7e2dd" stroke="transparent" points="2173.5,-1339.53 2173.5,-1399.53 2559.5,-1399.53 2559.5,-1339.53 2173.5,-1339.53"/>
<polygon fill="none" stroke="#29235c" points="2173.5,-1339.53 2173.5,-1399.53 2559.5,-1399.53 2559.5,-1339.53 2173.5,-1339.53"/>
<text text-anchor="start" x="2184.5" y="-1360.73" font-family="Helvetica,sans-Serif" font-weight="bold" font-size="32.00" fill="#29235c">id</text>
<text text-anchor="start" x="2209.39" y="-1360.73" font-family="Helvetica,sans-Serif" font-size="32.00" fill="#29235c"> &#160;&#160;&#160;</text>
<text text-anchor="start" x="2406.28" y="-1360.73" font-family="Helvetica,sans-Serif" font-style="italic" font-size="32.00" fill="#29235c">INTEGER</text>
<polygon fill="#e7e2dd" stroke="transparent" points="2173.5,-1279.53 2173.5,-1339.53 2559.5,-1339.53 2559.5,-1279.53 2173.5,-1279.53"/>
<polygon fill="none" stroke="#29235c" points="2173.5,-1279.53 2173.5,-1339.53 2559.5,-1339.53 2559.5,-1279.53 2173.5,-1279.53"/>
<text text-anchor="start" x="2184.5" y="-1299.73" font-family="Helvetica,sans-Serif" font-size="32.00" fill="#29235c">species &#160;&#160;&#160;</text>
<text text-anchor="start" x="2392.07" y="-1300.73" font-family="Helvetica,sans-Serif" font-style="italic" font-size="32.00" fill="#29235c">VARCHAR</text>
<polygon fill="#e7e2dd" stroke="transparent" points="2173.5,-1219.53 2173.5,-1279.53 2559.5,-1279.53 2559.5,-1219.53 2173.5,-1219.53"/>
<polygon fill="none" stroke="#29235c" points="2173.5,-1219.53 2173.5,-1279.53 2559.5,-1279.53 2559.5,-1219.53 2173.5,-1219.53"/>
<text text-anchor="start" x="2184.29" y="-1239.73" font-family="Helvetica,sans-Serif" font-size="32.00" fill="#29235c">average_weight &#160;&#160;&#160;</text>
<text text-anchor="start" x="2445.44" y="-1240.73" font-family="Helvetica,sans-Serif" font-style="italic" font-size="32.00" fill="#29235c">FLOAT</text>
<polygon fill="none" stroke="#29235c" stroke-width="2" points="2172.5,-1218.53 2172.5,-1460.53 2560.5,-1460.53 2560.5,-1218.53 2172.5,-1218.53"/>
</g>
<!-- Dinosaur&#45;&gt;DinosaurType -->
<!-- Dinosaur&#45;&gt;DinosaurType -->
<g id="edge8" class="edge">
<title>Dinosaur:e&#45;&gt;DinosaurType:w</title>
<path fill="none" stroke="#29235c" stroke-width="3" d="M1923.25,-1069.53C2093.05,-1069.53 2003.04,-1357.36 2162.17,-1369.16"/>
<polygon fill="#29235c" stroke="#29235c" stroke-width="3" points="2162.38,-1372.67 2172.5,-1369.53 2162.63,-1365.67 2162.38,-1372.67"/>
<text text-anchor="middle" x="2166.28" y="-1379.13" font-family="Helvetica,sans-Serif" font-size="32.00" fill="#29235c">*</text>
<text text-anchor="middle" x="1914.36" y="-1079.13" font-family="Helvetica,sans-Serif" font-size="32.00" fill="#29235c">1</text>
</g>
<!-- FoodLog -->
<g id="FoodLog" class="node">
<title>FoodLog</title>
<ellipse fill="none" stroke="black" stroke-width="0" cx="967.26" cy="-1630.53" rx="287.59" ry="214.92"/>
<polygon fill="#1d71b8" stroke="transparent" points="766.26,-1720.53 766.26,-1780.53 1169.26,-1780.53 1169.26,-1720.53 766.26,-1720.53"/>
<polygon fill="none" stroke="#29235c" points="766.26,-1720.53 766.26,-1780.53 1169.26,-1780.53 1169.26,-1720.53 766.26,-1720.53"/>
<text text-anchor="start" x="842.37" y="-1741.73" font-family="Helvetica,sans-Serif" font-weight="bold" font-size="32.00" fill="#ffffff"> &#160;&#160;&#160;&#160;&#160;&#160;FoodLog &#160;&#160;&#160;&#160;&#160;&#160;</text>
<polygon fill="#e7e2dd" stroke="transparent" points="766.26,-1660.53 766.26,-1720.53 1169.26,-1720.53 1169.26,-1660.53 766.26,-1660.53"/>
<polygon fill="none" stroke="#29235c" points="766.26,-1660.53 766.26,-1720.53 1169.26,-1720.53 1169.26,-1660.53 766.26,-1660.53"/>
<text text-anchor="start" x="777.26" y="-1681.73" font-family="Helvetica,sans-Serif" font-weight="bold" font-size="32.00" fill="#29235c">id</text>
<text text-anchor="start" x="802.15" y="-1681.73" font-family="Helvetica,sans-Serif" font-size="32.00" fill="#29235c"> &#160;&#160;&#160;</text>
<text text-anchor="start" x="1016.04" y="-1681.73" font-family="Helvetica,sans-Serif" font-style="italic" font-size="32.00" fill="#29235c">INTEGER</text>
<polygon fill="#e7e2dd" stroke="transparent" points="766.26,-1600.53 766.26,-1660.53 1169.26,-1660.53 1169.26,-1600.53 766.26,-1600.53"/>
<polygon fill="none" stroke="#29235c" points="766.26,-1600.53 766.26,-1660.53 1169.26,-1660.53 1169.26,-1600.53 766.26,-1600.53"/>
<text text-anchor="start" x="777.26" y="-1620.73" font-family="Helvetica,sans-Serif" font-size="32.00" fill="#29235c">dinosaur_id &#160;&#160;&#160;</text>
<text text-anchor="start" x="1016.04" y="-1621.73" font-family="Helvetica,sans-Serif" font-style="italic" font-size="32.00" fill="#29235c">INTEGER</text>
<polygon fill="#e7e2dd" stroke="transparent" points="766.26,-1540.53 766.26,-1600.53 1169.26,-1600.53 1169.26,-1540.53 766.26,-1540.53"/>
<polygon fill="none" stroke="#29235c" points="766.26,-1540.53 766.26,-1600.53 1169.26,-1600.53 1169.26,-1540.53 766.26,-1540.53"/>
<text text-anchor="start" x="777.26" y="-1560.73" font-family="Helvetica,sans-Serif" font-size="32.00" fill="#29235c">food_type_id &#160;&#160;&#160;</text>
<text text-anchor="start" x="1016.04" y="-1561.73" font-family="Helvetica,sans-Serif" font-style="italic" font-size="32.00" fill="#29235c">INTEGER</text>
<polygon fill="#e7e2dd" stroke="transparent" points="766.26,-1480.53 766.26,-1540.53 1169.26,-1540.53 1169.26,-1480.53 766.26,-1480.53"/>
<polygon fill="none" stroke="#29235c" points="766.26,-1480.53 766.26,-1540.53 1169.26,-1540.53 1169.26,-1480.53 766.26,-1480.53"/>
<text text-anchor="start" x="776.98" y="-1500.73" font-family="Helvetica,sans-Serif" font-size="32.00" fill="#29235c">feeding_date &#160;&#160;&#160;</text>
<text text-anchor="start" x="996.88" y="-1501.73" font-family="Helvetica,sans-Serif" font-style="italic" font-size="32.00" fill="#29235c">DATETIME</text>
<polygon fill="none" stroke="#29235c" stroke-width="2" points="764.76,-1479.53 764.76,-1781.53 1169.76,-1781.53 1169.76,-1479.53 764.76,-1479.53"/>
</g>
<!-- FoodLog&#45;&gt;Dinosaur -->
<!-- FoodLog&#45;&gt;Dinosaur -->
<g id="edge10" class="edge">
<title>FoodLog:e&#45;&gt;Dinosaur:w</title>
<path fill="none" stroke="#29235c" stroke-width="3" d="M1170.26,-1630.53C1332.33,-1630.53 1273.33,-1380.63 1425.89,-1369.89"/>
<polygon fill="#29235c" stroke="#29235c" stroke-width="3" points="1426.38,-1373.38 1436.25,-1369.53 1426.14,-1366.38 1426.38,-1373.38"/>
<text text-anchor="middle" x="1442.48" y="-1340.73" font-family="Helvetica,sans-Serif" font-size="32.00" fill="#29235c">*</text>
<text text-anchor="middle" x="1161.37" y="-1640.13" font-family="Helvetica,sans-Serif" font-size="32.00" fill="#29235c">1</text>
</g>
<!-- FoodType -->
<g id="FoodType" class="node">
<title>FoodType</title>
<ellipse fill="none" stroke="black" stroke-width="0" cx="1679.25" cy="-1739.53" rx="280.94" ry="172.57"/>
<polygon fill="#1d71b8" stroke="transparent" points="1483.25,-1799.53 1483.25,-1859.53 1876.25,-1859.53 1876.25,-1799.53 1483.25,-1799.53"/>
<polygon fill="none" stroke="#29235c" points="1483.25,-1799.53 1483.25,-1859.53 1876.25,-1859.53 1876.25,-1799.53 1483.25,-1799.53"/>
<text text-anchor="start" x="1545.48" y="-1820.73" font-family="Helvetica,sans-Serif" font-weight="bold" font-size="32.00" fill="#ffffff"> &#160;&#160;&#160;&#160;&#160;&#160;FoodType &#160;&#160;&#160;&#160;&#160;&#160;</text>
<polygon fill="#e7e2dd" stroke="transparent" points="1483.25,-1739.53 1483.25,-1799.53 1876.25,-1799.53 1876.25,-1739.53 1483.25,-1739.53"/>
<polygon fill="none" stroke="#29235c" points="1483.25,-1739.53 1483.25,-1799.53 1876.25,-1799.53 1876.25,-1739.53 1483.25,-1739.53"/>
<text text-anchor="start" x="1494.25" y="-1760.73" font-family="Helvetica,sans-Serif" font-weight="bold" font-size="32.00" fill="#29235c">id</text>
<text text-anchor="start" x="1519.14" y="-1760.73" font-family="Helvetica,sans-Serif" font-size="32.00" fill="#29235c"> &#160;&#160;&#160;</text>
<text text-anchor="start" x="1723.04" y="-1760.73" font-family="Helvetica,sans-Serif" font-style="italic" font-size="32.00" fill="#29235c">INTEGER</text>
<polygon fill="#e7e2dd" stroke="transparent" points="1483.25,-1679.53 1483.25,-1739.53 1876.25,-1739.53 1876.25,-1679.53 1483.25,-1679.53"/>
<polygon fill="none" stroke="#29235c" points="1483.25,-1679.53 1483.25,-1739.53 1876.25,-1739.53 1876.25,-1679.53 1483.25,-1679.53"/>
<text text-anchor="start" x="1494.25" y="-1699.73" font-family="Helvetica,sans-Serif" font-size="32.00" fill="#29235c">name &#160;&#160;&#160;</text>
<text text-anchor="start" x="1708.83" y="-1700.73" font-family="Helvetica,sans-Serif" font-style="italic" font-size="32.00" fill="#29235c">VARCHAR</text>
<polygon fill="#e7e2dd" stroke="transparent" points="1483.25,-1619.53 1483.25,-1679.53 1876.25,-1679.53 1876.25,-1619.53 1483.25,-1619.53"/>
<polygon fill="none" stroke="#29235c" points="1483.25,-1619.53 1483.25,-1679.53 1876.25,-1679.53 1876.25,-1619.53 1483.25,-1619.53"/>
<text text-anchor="start" x="1494" y="-1639.73" font-family="Helvetica,sans-Serif" font-size="32.00" fill="#29235c">nutritional_value &#160;&#160;&#160;</text>
<text text-anchor="start" x="1762.19" y="-1640.73" font-family="Helvetica,sans-Serif" font-style="italic" font-size="32.00" fill="#29235c">FLOAT</text>
<polygon fill="none" stroke="#29235c" stroke-width="2" points="1481.75,-1618.53 1481.75,-1860.53 1876.75,-1860.53 1876.75,-1618.53 1481.75,-1618.53"/>
</g>
<!-- FoodLog&#45;&gt;FoodType -->
<!-- FoodLog&#45;&gt;FoodType -->
<g id="edge12" class="edge">
<title>FoodLog:e&#45;&gt;FoodType:w</title>
<path fill="none" stroke="#29235c" stroke-width="3" d="M1170.26,-1570.53C1331.2,-1570.53 1318.43,-1761.08 1471.9,-1769.26"/>
<polygon fill="#29235c" stroke="#29235c" stroke-width="3" points="1472.17,-1772.77 1482.25,-1769.53 1472.35,-1765.77 1472.17,-1772.77"/>
<text text-anchor="middle" x="1488.48" y="-1779.13" font-family="Helvetica,sans-Serif" font-size="32.00" fill="#29235c">*</text>
<text text-anchor="middle" x="1161.37" y="-1580.13" font-family="Helvetica,sans-Serif" font-size="32.00" fill="#29235c">1</text>
</g>
<!-- HealthCondition -->
<g id="HealthCondition" class="node">
<title>HealthCondition</title>
<ellipse fill="none" stroke="black" stroke-width="0" cx="1679.25" cy="-438.53" rx="267.07" ry="130.22"/>
<polygon fill="#1d71b8" stroke="transparent" points="1492.25,-468.53 1492.25,-528.53 1866.25,-528.53 1866.25,-468.53 1492.25,-468.53"/>
<polygon fill="none" stroke="#29235c" points="1492.25,-468.53 1492.25,-528.53 1866.25,-528.53 1866.25,-468.53 1492.25,-468.53"/>
<text text-anchor="start" x="1503.2" y="-489.73" font-family="Helvetica,sans-Serif" font-weight="bold" font-size="32.00" fill="#ffffff"> &#160;&#160;&#160;&#160;&#160;&#160;HealthCondition &#160;&#160;&#160;&#160;&#160;&#160;</text>
<polygon fill="#e7e2dd" stroke="transparent" points="1492.25,-408.53 1492.25,-468.53 1866.25,-468.53 1866.25,-408.53 1492.25,-408.53"/>
<polygon fill="none" stroke="#29235c" points="1492.25,-408.53 1492.25,-468.53 1866.25,-468.53 1866.25,-408.53 1492.25,-408.53"/>
<text text-anchor="start" x="1503.25" y="-429.73" font-family="Helvetica,sans-Serif" font-weight="bold" font-size="32.00" fill="#29235c">id</text>
<text text-anchor="start" x="1528.14" y="-429.73" font-family="Helvetica,sans-Serif" font-size="32.00" fill="#29235c"> &#160;&#160;&#160;</text>
<text text-anchor="start" x="1713.04" y="-429.73" font-family="Helvetica,sans-Serif" font-style="italic" font-size="32.00" fill="#29235c">INTEGER</text>
<polygon fill="#e7e2dd" stroke="transparent" points="1492.25,-348.53 1492.25,-408.53 1866.25,-408.53 1866.25,-348.53 1492.25,-348.53"/>
<polygon fill="none" stroke="#29235c" points="1492.25,-348.53 1492.25,-408.53 1866.25,-408.53 1866.25,-348.53 1492.25,-348.53"/>
<text text-anchor="start" x="1503.25" y="-368.73" font-family="Helvetica,sans-Serif" font-size="32.00" fill="#29235c">description &#160;&#160;&#160;</text>
<text text-anchor="start" x="1698.83" y="-369.73" font-family="Helvetica,sans-Serif" font-style="italic" font-size="32.00" fill="#29235c">VARCHAR</text>
<polygon fill="none" stroke="#29235c" stroke-width="2" points="1491.25,-347.53 1491.25,-529.53 1867.25,-529.53 1867.25,-347.53 1491.25,-347.53"/>
</g>
<!-- HealthRecord -->
<g id="HealthRecord" class="node">
<title>HealthRecord</title>
<ellipse fill="none" stroke="black" stroke-width="0" cx="967.26" cy="-577.53" rx="330.44" ry="214.92"/>
<polygon fill="#1d71b8" stroke="transparent" points="736.26,-667.53 736.26,-727.53 1199.26,-727.53 1199.26,-667.53 736.26,-667.53"/>
<polygon fill="none" stroke="#29235c" points="736.26,-667.53 736.26,-727.53 1199.26,-727.53 1199.26,-667.53 736.26,-667.53"/>
<text text-anchor="start" x="807.72" y="-688.73" font-family="Helvetica,sans-Serif" font-weight="bold" font-size="32.00" fill="#ffffff"> &#160;&#160;&#160;&#160;&#160;&#160;HealthRecord &#160;&#160;&#160;&#160;&#160;&#160;</text>
<polygon fill="#e7e2dd" stroke="transparent" points="736.26,-607.53 736.26,-667.53 1199.26,-667.53 1199.26,-607.53 736.26,-607.53"/>
<polygon fill="none" stroke="#29235c" points="736.26,-607.53 736.26,-667.53 1199.26,-667.53 1199.26,-607.53 736.26,-607.53"/>
<text text-anchor="start" x="747.26" y="-628.73" font-family="Helvetica,sans-Serif" font-weight="bold" font-size="32.00" fill="#29235c">id</text>
<text text-anchor="start" x="772.15" y="-628.73" font-family="Helvetica,sans-Serif" font-size="32.00" fill="#29235c"> &#160;&#160;&#160;</text>
<text text-anchor="start" x="1046.04" y="-628.73" font-family="Helvetica,sans-Serif" font-style="italic" font-size="32.00" fill="#29235c">INTEGER</text>
<polygon fill="#e7e2dd" stroke="transparent" points="736.26,-547.53 736.26,-607.53 1199.26,-607.53 1199.26,-547.53 736.26,-547.53"/>
<polygon fill="none" stroke="#29235c" points="736.26,-547.53 736.26,-607.53 1199.26,-607.53 1199.26,-547.53 736.26,-547.53"/>
<text text-anchor="start" x="747.26" y="-567.73" font-family="Helvetica,sans-Serif" font-size="32.00" fill="#29235c">dinosaur_id &#160;&#160;&#160;</text>
<text text-anchor="start" x="1046.04" y="-568.73" font-family="Helvetica,sans-Serif" font-style="italic" font-size="32.00" fill="#29235c">INTEGER</text>
<polygon fill="#e7e2dd" stroke="transparent" points="736.26,-487.53 736.26,-547.53 1199.26,-547.53 1199.26,-487.53 736.26,-487.53"/>
<polygon fill="none" stroke="#29235c" points="736.26,-487.53 736.26,-547.53 1199.26,-547.53 1199.26,-487.53 736.26,-487.53"/>
<text text-anchor="start" x="747.26" y="-507.73" font-family="Helvetica,sans-Serif" font-size="32.00" fill="#29235c">condition_id &#160;&#160;&#160;</text>
<text text-anchor="start" x="1046.04" y="-508.73" font-family="Helvetica,sans-Serif" font-style="italic" font-size="32.00" fill="#29235c">INTEGER</text>
<polygon fill="#e7e2dd" stroke="transparent" points="736.26,-427.53 736.26,-487.53 1199.26,-487.53 1199.26,-427.53 736.26,-427.53"/>
<polygon fill="none" stroke="#29235c" points="736.26,-427.53 736.26,-487.53 1199.26,-487.53 1199.26,-427.53 736.26,-427.53"/>
<text text-anchor="start" x="746.76" y="-447.73" font-family="Helvetica,sans-Serif" font-size="32.00" fill="#29235c">observation_date &#160;&#160;&#160;</text>
<text text-anchor="start" x="1026.88" y="-448.73" font-family="Helvetica,sans-Serif" font-style="italic" font-size="32.00" fill="#29235c">DATETIME</text>
<polygon fill="none" stroke="#29235c" stroke-width="2" points="734.76,-426.53 734.76,-728.53 1199.76,-728.53 1199.76,-426.53 734.76,-426.53"/>
</g>
<!-- HealthRecord&#45;&gt;Dinosaur -->
<!-- HealthRecord&#45;&gt;Dinosaur -->
<g id="edge16" class="edge">
<title>HealthRecord:e&#45;&gt;Dinosaur:w</title>
<path fill="none" stroke="#29235c" stroke-width="3" d="M1200.26,-577.53C1380.41,-577.53 1257.49,-1339.66 1426.1,-1368.68"/>
<polygon fill="#29235c" stroke="#29235c" stroke-width="3" points="1426,-1372.19 1436.25,-1369.53 1426.58,-1365.21 1426,-1372.19"/>
<text text-anchor="middle" x="1430.03" y="-1379.13" font-family="Helvetica,sans-Serif" font-size="32.00" fill="#29235c">*</text>
<text text-anchor="middle" x="1191.37" y="-587.13" font-family="Helvetica,sans-Serif" font-size="32.00" fill="#29235c">1</text>
</g>
<!-- HealthRecord&#45;&gt;HealthCondition -->
<!-- HealthRecord&#45;&gt;HealthCondition -->
<g id="edge14" class="edge">
<title>HealthRecord:e&#45;&gt;HealthCondition:w</title>
<path fill="none" stroke="#29235c" stroke-width="3" d="M1200.26,-517.53C1330.74,-517.53 1355.95,-442.65 1480.88,-438.7"/>
<polygon fill="#29235c" stroke="#29235c" stroke-width="3" points="1481.31,-442.19 1491.25,-438.53 1481.2,-435.19 1481.31,-442.19"/>
<text text-anchor="middle" x="1497.48" y="-448.13" font-family="Helvetica,sans-Serif" font-size="32.00" fill="#29235c">*</text>
<text text-anchor="middle" x="1191.37" y="-527.13" font-family="Helvetica,sans-Serif" font-size="32.00" fill="#29235c">1</text>
</g>
<!-- Payment -->
<g id="Payment" class="node">
<title>Payment</title>
<ellipse fill="none" stroke="black" stroke-width="0" cx="1679.25" cy="-2144.53" rx="300.54" ry="214.92"/>
<polygon fill="#1d71b8" stroke="transparent" points="1469.25,-2234.53 1469.25,-2294.53 1890.25,-2294.53 1890.25,-2234.53 1469.25,-2234.53"/>
<polygon fill="none" stroke="#29235c" points="1469.25,-2234.53 1469.25,-2294.53 1890.25,-2294.53 1890.25,-2234.53 1469.25,-2234.53"/>
<text text-anchor="start" x="1554.38" y="-2255.73" font-family="Helvetica,sans-Serif" font-weight="bold" font-size="32.00" fill="#ffffff"> &#160;&#160;&#160;&#160;&#160;&#160;Payment &#160;&#160;&#160;&#160;&#160;&#160;</text>
<polygon fill="#e7e2dd" stroke="transparent" points="1469.25,-2174.53 1469.25,-2234.53 1890.25,-2234.53 1890.25,-2174.53 1469.25,-2174.53"/>
<polygon fill="none" stroke="#29235c" points="1469.25,-2174.53 1469.25,-2234.53 1890.25,-2234.53 1890.25,-2174.53 1469.25,-2174.53"/>
<text text-anchor="start" x="1480.25" y="-2195.73" font-family="Helvetica,sans-Serif" font-weight="bold" font-size="32.00" fill="#29235c">id</text>
<text text-anchor="start" x="1505.14" y="-2195.73" font-family="Helvetica,sans-Serif" font-size="32.00" fill="#29235c"> &#160;&#160;&#160;</text>
<text text-anchor="start" x="1737.04" y="-2195.73" font-family="Helvetica,sans-Serif" font-style="italic" font-size="32.00" fill="#29235c">INTEGER</text>
<polygon fill="#e7e2dd" stroke="transparent" points="1469.25,-2114.53 1469.25,-2174.53 1890.25,-2174.53 1890.25,-2114.53 1469.25,-2114.53"/>
<polygon fill="none" stroke="#29235c" points="1469.25,-2114.53 1469.25,-2174.53 1890.25,-2174.53 1890.25,-2114.53 1469.25,-2114.53"/>
<text text-anchor="start" x="1480.25" y="-2134.73" font-family="Helvetica,sans-Serif" font-size="32.00" fill="#29235c">customer_id &#160;&#160;&#160;</text>
<text text-anchor="start" x="1737.04" y="-2135.73" font-family="Helvetica,sans-Serif" font-style="italic" font-size="32.00" fill="#29235c">INTEGER</text>
<polygon fill="#e7e2dd" stroke="transparent" points="1469.25,-2054.53 1469.25,-2114.53 1890.25,-2114.53 1890.25,-2054.53 1469.25,-2054.53"/>
<polygon fill="none" stroke="#29235c" points="1469.25,-2054.53 1469.25,-2114.53 1890.25,-2114.53 1890.25,-2054.53 1469.25,-2054.53"/>
<text text-anchor="start" x="1480.25" y="-2074.73" font-family="Helvetica,sans-Serif" font-size="32.00" fill="#29235c">amount &#160;&#160;&#160;</text>
<text text-anchor="start" x="1776.13" y="-2075.73" font-family="Helvetica,sans-Serif" font-style="italic" font-size="32.00" fill="#29235c">FLOAT</text>
<polygon fill="#e7e2dd" stroke="transparent" points="1469.25,-1994.53 1469.25,-2054.53 1890.25,-2054.53 1890.25,-1994.53 1469.25,-1994.53"/>
<polygon fill="none" stroke="#29235c" points="1469.25,-1994.53 1469.25,-2054.53 1890.25,-2054.53 1890.25,-1994.53 1469.25,-1994.53"/>
<text text-anchor="start" x="1480.09" y="-2014.73" font-family="Helvetica,sans-Serif" font-size="32.00" fill="#29235c">payment_date &#160;&#160;&#160;</text>
<text text-anchor="start" x="1717.87" y="-2015.73" font-family="Helvetica,sans-Serif" font-style="italic" font-size="32.00" fill="#29235c">DATETIME</text>
<polygon fill="none" stroke="#29235c" stroke-width="2" points="1467.75,-1993.53 1467.75,-2295.53 1890.75,-2295.53 1890.75,-1993.53 1467.75,-1993.53"/>
</g>
<!-- Payment&#45;&gt;Customer -->
<!-- Payment&#45;&gt;Customer -->
<g id="edge18" class="edge">
<title>Payment:e&#45;&gt;Customer:w</title>
<path fill="none" stroke="#29235c" stroke-width="3" d="M1891.25,-2144.53C2017.92,-2144.53 2021.31,-2017.51 2141.47,-2010.81"/>
<polygon fill="#29235c" stroke="#29235c" stroke-width="3" points="2141.6,-2014.31 2151.5,-2010.53 2141.41,-2007.31 2141.6,-2014.31"/>
<text text-anchor="middle" x="2157.72" y="-2020.13" font-family="Helvetica,sans-Serif" font-size="32.00" fill="#29235c">*</text>
<text text-anchor="middle" x="1882.36" y="-2154.13" font-family="Helvetica,sans-Serif" font-size="32.00" fill="#29235c">1</text>
</g>
<!-- ServiceRecord -->
<g id="ServiceRecord" class="node">
<title>ServiceRecord</title>
<ellipse fill="none" stroke="black" stroke-width="0" cx="300.52" cy="-673.53" rx="300.54" ry="172.57"/>
<polygon fill="#1d71b8" stroke="transparent" points="90.52,-733.53 90.52,-793.53 511.52,-793.53 511.52,-733.53 90.52,-733.53"/>
<polygon fill="none" stroke="#29235c" points="90.52,-733.53 90.52,-793.53 511.52,-793.53 511.52,-733.53 90.52,-733.53"/>
<text text-anchor="start" x="133.87" y="-754.73" font-family="Helvetica,sans-Serif" font-weight="bold" font-size="32.00" fill="#ffffff"> &#160;&#160;&#160;&#160;&#160;&#160;ServiceRecord &#160;&#160;&#160;&#160;&#160;&#160;</text>
<polygon fill="#e7e2dd" stroke="transparent" points="90.52,-673.53 90.52,-733.53 511.52,-733.53 511.52,-673.53 90.52,-673.53"/>
<polygon fill="none" stroke="#29235c" points="90.52,-673.53 90.52,-733.53 511.52,-733.53 511.52,-673.53 90.52,-673.53"/>
<text text-anchor="start" x="101.52" y="-694.73" font-family="Helvetica,sans-Serif" font-weight="bold" font-size="32.00" fill="#29235c">id</text>
<text text-anchor="start" x="126.41" y="-694.73" font-family="Helvetica,sans-Serif" font-size="32.00" fill="#29235c"> &#160;&#160;&#160;</text>
<text text-anchor="start" x="358.3" y="-694.73" font-family="Helvetica,sans-Serif" font-style="italic" font-size="32.00" fill="#29235c">INTEGER</text>
<polygon fill="#e7e2dd" stroke="transparent" points="90.52,-613.53 90.52,-673.53 511.52,-673.53 511.52,-613.53 90.52,-613.53"/>
<polygon fill="none" stroke="#29235c" points="90.52,-613.53 90.52,-673.53 511.52,-673.53 511.52,-613.53 90.52,-613.53"/>
<text text-anchor="start" x="101.52" y="-633.73" font-family="Helvetica,sans-Serif" font-size="32.00" fill="#29235c">appointment_id &#160;&#160;&#160;</text>
<text text-anchor="start" x="358.3" y="-634.73" font-family="Helvetica,sans-Serif" font-style="italic" font-size="32.00" fill="#29235c">INTEGER</text>
<polygon fill="#e7e2dd" stroke="transparent" points="90.52,-553.53 90.52,-613.53 511.52,-613.53 511.52,-553.53 90.52,-553.53"/>
<polygon fill="none" stroke="#29235c" points="90.52,-553.53 90.52,-613.53 511.52,-613.53 511.52,-553.53 90.52,-553.53"/>
<text text-anchor="start" x="101.1" y="-573.73" font-family="Helvetica,sans-Serif" font-size="32.00" fill="#29235c">service_type_id &#160;&#160;&#160;</text>
<text text-anchor="start" x="358.41" y="-574.73" font-family="Helvetica,sans-Serif" font-style="italic" font-size="32.00" fill="#29235c">INTEGER</text>
<polygon fill="none" stroke="#29235c" stroke-width="2" points="89.02,-552.53 89.02,-794.53 512.02,-794.53 512.02,-552.53 89.02,-552.53"/>
</g>
<!-- ServiceRecord&#45;&gt;Appointment -->
<!-- ServiceRecord&#45;&gt;Appointment -->
<g id="edge20" class="edge">
<title>ServiceRecord:e&#45;&gt;Appointment:w</title>
<path fill="none" stroke="#29235c" stroke-width="3" d="M512.52,-643.53C624.44,-643.53 666.49,-1060.01 774.31,-1084.42"/>
<polygon fill="#29235c" stroke="#29235c" stroke-width="3" points="773.93,-1087.9 784.26,-1085.53 774.71,-1080.94 773.93,-1087.9"/>
<text text-anchor="middle" x="790.48" y="-1095.13" font-family="Helvetica,sans-Serif" font-size="32.00" fill="#29235c">*</text>
<text text-anchor="middle" x="503.63" y="-653.13" font-family="Helvetica,sans-Serif" font-size="32.00" fill="#29235c">1</text>
</g>
<!-- ServiceType -->
<g id="ServiceType" class="node">
<title>ServiceType</title>
<ellipse fill="none" stroke="black" stroke-width="0" cx="967.26" cy="-172.53" rx="263.09" ry="172.57"/>
<polygon fill="#1d71b8" stroke="transparent" points="783.26,-232.53 783.26,-292.53 1151.26,-292.53 1151.26,-232.53 783.26,-232.53"/>
<polygon fill="none" stroke="#29235c" points="783.26,-232.53 783.26,-292.53 1151.26,-292.53 1151.26,-232.53 783.26,-232.53"/>
<text text-anchor="start" x="816.11" y="-253.73" font-family="Helvetica,sans-Serif" font-weight="bold" font-size="32.00" fill="#ffffff"> &#160;&#160;&#160;&#160;&#160;&#160;ServiceType &#160;&#160;&#160;&#160;&#160;&#160;</text>
<polygon fill="#e7e2dd" stroke="transparent" points="783.26,-172.53 783.26,-232.53 1151.26,-232.53 1151.26,-172.53 783.26,-172.53"/>
<polygon fill="none" stroke="#29235c" points="783.26,-172.53 783.26,-232.53 1151.26,-232.53 1151.26,-172.53 783.26,-172.53"/>
<text text-anchor="start" x="794.26" y="-193.73" font-family="Helvetica,sans-Serif" font-weight="bold" font-size="32.00" fill="#29235c">id</text>
<text text-anchor="start" x="819.15" y="-193.73" font-family="Helvetica,sans-Serif" font-size="32.00" fill="#29235c"> &#160;&#160;&#160;</text>
<text text-anchor="start" x="998.04" y="-193.73" font-family="Helvetica,sans-Serif" font-style="italic" font-size="32.00" fill="#29235c">INTEGER</text>
<polygon fill="#e7e2dd" stroke="transparent" points="783.26,-112.53 783.26,-172.53 1151.26,-172.53 1151.26,-112.53 783.26,-112.53"/>
<polygon fill="none" stroke="#29235c" points="783.26,-112.53 783.26,-172.53 1151.26,-172.53 1151.26,-112.53 783.26,-112.53"/>
<text text-anchor="start" x="794.13" y="-132.73" font-family="Helvetica,sans-Serif" font-size="32.00" fill="#29235c">description &#160;&#160;&#160;</text>
<text text-anchor="start" x="984.05" y="-133.73" font-family="Helvetica,sans-Serif" font-style="italic" font-size="32.00" fill="#29235c">VARCHAR</text>
<polygon fill="#e7e2dd" stroke="transparent" points="783.26,-52.53 783.26,-112.53 1151.26,-112.53 1151.26,-52.53 783.26,-52.53"/>
<polygon fill="none" stroke="#29235c" points="783.26,-52.53 783.26,-112.53 1151.26,-112.53 1151.26,-52.53 783.26,-52.53"/>
<text text-anchor="start" x="794.26" y="-72.73" font-family="Helvetica,sans-Serif" font-size="32.00" fill="#29235c">price &#160;&#160;&#160;</text>
<text text-anchor="start" x="1037.14" y="-73.73" font-family="Helvetica,sans-Serif" font-style="italic" font-size="32.00" fill="#29235c">FLOAT</text>
<polygon fill="none" stroke="#29235c" stroke-width="2" points="782.26,-51.53 782.26,-293.53 1152.26,-293.53 1152.26,-51.53 782.26,-51.53"/>
</g>
<!-- ServiceRecord&#45;&gt;ServiceType -->
<!-- ServiceRecord&#45;&gt;ServiceType -->
<g id="edge22" class="edge">
<title>ServiceRecord:e&#45;&gt;ServiceType:w</title>
<path fill="none" stroke="#29235c" stroke-width="3" d="M512.52,-583.53C628.76,-583.53 568.46,-447.39 637.04,-353.53 689.88,-281.22 689.28,-208.31 772.03,-202.86"/>
<polygon fill="#29235c" stroke="#29235c" stroke-width="3" points="772.38,-206.35 782.26,-202.53 772.15,-199.35 772.38,-206.35"/>
<text text-anchor="middle" x="788.48" y="-202.53" font-family="Helvetica,sans-Serif" font-size="32.00" fill="#29235c">*</text>
<text text-anchor="middle" x="503.63" y="-593.13" font-family="Helvetica,sans-Serif" font-size="32.00" fill="#29235c">1</text>
</g>
</g>
</svg>
